<svg version="1" xmlns="http://www.w3.org/2000/svg" width="933.333" height="933.333" viewBox="0 0 700.000000 700.000000"><path d="M364 128.7c-20.4 2.5-36.1 6.9-47.9 13.6-10 5.6-20.5 16.2-25.2 25.2-5.9 11.4-7.1 16.2-7.4 30.4-.3 10.3 1 18.4 4.1 26.8 1.7 4.8 8.4 15.4 12.3 19.6 2.7 2.9 14.7 12.7 15.6 12.7.2 0 2.8 1.5 5.7 3.4 2.9 1.8 13.2 6.8 22.8 11 32.7 14.5 42 21 45.7 32.3 1.4 4.5 1.5 6 .4 10.6-2.8 12.8-16.6 19.7-39.6 19.8-22.6.1-44.7-7.4-62.7-21.4l-3.8-2.9v53.9l5.8 2.5c14.9 6.5 34.1 9.9 58.2 10.3 9.1.1 19.2-.1 22.5-.5 14.9-1.9 17.3-2.3 22-3.5 27.8-7.3 44.5-21.3 52-43.6 2.4-7.1 2.8-10.3 3.1-21.1.5-25-6.2-39.7-25.2-55.4-2.3-1.9-4.6-3.4-5.2-3.4-.6 0-1.2-.4-1.4-.9-.8-2.1-17.2-10.4-42.8-21.7-9.6-4.2-22-11.7-25.7-15.6-10-10.4-8.9-24.3 2.7-32.3 6.9-4.8 15.1-6.8 28.5-6.9 6.6 0 14.5.2 17.5.6 9 1.2 22.9 5.6 32.4 10.4 4.9 2.4 9 4.4 9 4.4.1 0 .1-11.1.1-24.7v-24.6l-5.5-1.9c-13.5-4.6-29.8-6.9-50.5-7.2-8.2-.1-16.1 0-17.5.1zM112.7 139.4c-2.9 8-14.2 39-24.2 66.6-3.7 10.2-8.9 24.3-11.5 31.5-2.6 7.1-8.7 23.8-13.5 37-4.7 13.2-11.3 31.3-14.6 40.2-3.2 9-8.6 23.8-12 33-3.3 9.3-6.7 18.5-7.5 20.6-.8 2-1.4 4-1.4 4.2 0 .3 13.2.4 29.3.3l29.2-.3 4.8-15c2.7-8.3 6.5-20.2 8.6-26.5l3.7-11.5h42.7l42.7-.1 1.4 4.6c.8 2.5 4.7 14.5 8.6 26.7l7.1 22.3h29.5c16.2 0 29.4-.1 29.4-.3 0-.3-20.5-58.1-25.9-73.2-1.6-4.4-5.4-15-8.4-23.5-3.1-8.5-11.5-32.2-18.7-52.5-13.6-38.4-29.4-82.7-31.2-88.1l-1.1-3.1h-64.4l-2.6 7.1zm34.8 42.3c1 8.5 2.3 12.7 16.5 56.8 9 28.1 12 37.9 11.4 38.4-1.1 1.2-60.2.8-59.9-.3.7-2.1 15.7-49.2 19.6-61.1 7.3-23 9.6-31.9 9.8-38.3.2-4.3 1.9-1.3 2.6 4.5zM487.7 132.9c-.2.3-.3 54.4-.3 120.1l.1 119.5H542c48.2 0 55.5-.2 63.3-1.8 31.1-6.3 52.1-23.1 59.8-47.8 1.9-6.2 2.3-9.6 2.3-20.9 0-15.3-1.5-21-8.1-31-8.9-13.5-21.2-21.5-40.3-26-4.1-.9-6.8-2-6-2.3.8-.4 4-1.6 7.1-2.7 14-5.1 28.1-17.7 33.7-30 3.3-7.4 4.4-13 4.4-22.5 0-14.3-4.4-25.1-14.4-34.7-9.3-9-25-16-41.3-18.3-2.7-.4-5.9-1-7-1.2-3.1-.8-107.5-1.2-107.8-.4zm88.8 40.4c11.9 2.8 18.8 7.1 22.4 14.1 2.7 5.3 3.2 14.8 1 21.4-2.9 9.1-11 16.3-21.3 18.9-3.3.8-29.7 1.9-33.5 1.3l-3.4-.5.1-25c0-13.8.1-26.4.1-28.2l.1-3.2 16.3.4c8.9.2 17.1.6 18.2.8zm7.8 97.7c18 3.7 26.8 14.2 26.3 31-.3 9-2.9 15.3-8.7 20.4-9 8.2-17 10.2-41.7 10.5l-18.2.2-.1-2.8c-.1-3.2 0-53.2 0-57.9l.1-3 18.3.2c10 .1 20.8.7 24 1.4zM355.1 429c-.4.3-.7 30.6-.7 67.4.1 66 .1 66.9 2.1 67.5 1.1.3 3.6.5 5.5.5 7.5-.3 7 .2 7-7v-6.7l3.1 3.9c6.3 8 14.1 11.5 25.4 11.5 11.3 0 20.3-3.6 27.5-11.1 16.9-17.5 18.1-55.5 2.4-73-7-7.8-14.7-11.1-25.9-11.2-11.6-.1-20.3 3.8-27.9 12.4l-4.6 5.3v-29.8c0-25.7-.2-29.7-1.5-29.8-5.1-.4-11.8-.3-12.4.1zm51 55.5c13.8 4.9 20.2 21.7 16.3 42.8-3.4 17.8-14.5 27.8-29.4 26.4-7.1-.6-12.8-3.5-17.3-8.7-5.1-6-6.5-11.4-6.6-25 0-13.1 2.1-20.9 7.4-27.5 6.7-8.3 19-11.6 29.6-8zM508.3 429c-1.8.5-1.8 3.3-1.8 67.2 0 36.6.3 67 .7 67.4.4.4 3.6.7 7 .7h6.3l.3-67.6c.1-37.3-.1-67.7-.5-67.8-4-.3-10.5-.3-12 .1zM465.8 431.4c-1.1.6-3 2.3-4.1 3.8-1.7 2.3-1.9 3.4-1.1 6.4 1.8 7.5 10.1 10 15.4 4.9 4-3.8 4.1-9.1.4-12.9-1.5-1.4-2.9-2.6-3.3-2.7-3.9-.5-5.5-.4-7.3.5zM129.8 470.5c-.2.2-1.9.5-3.8.8-7.1 1-13.6 5-18.6 11.5l-3.4 4.5v-14.8l-5.7.2c-3.2.1-6.5.2-7.4.2-1.3.1-1.5 5.1-1.5 45.6 0 45.3 0 45.5 2 45.6 1.2 0 4.5.1 7.4.2l5.2.2.1-28c0-15.4.2-28.9.3-30.1 1.1-9.3 7.4-19 14.3-21.9 6.9-2.9 16.4-1.3 21.4 3.6 6.2 6.1 6.4 7.1 6.7 43.1.2 24.4.6 32.8 1.5 32.9 1.7.1 8.8.1 11.3 0 2-.1 2.1-.5 2.1-26.9 0-14.7.3-28.9.7-31.5.8-5.3 4.4-12.7 7.9-16.6 7.1-7.7 20.7-8.2 27.6-1 5.9 6 6.5 10.2 6.8 42.9.1 15.7.2 29.6.2 31 .1 2.4.3 2.5 6.8 2.5 4.4 0 7-.4 7.3-1.2 1.1-2.6.2-62.9-1-68.8-3-15.3-12.9-23.4-28.8-23.7-11.1-.2-20.5 4.5-26.8 13.3l-3.8 5.1-1.9-4.1c-2.6-5.5-9.6-11.6-14.9-12.9-4.5-1.2-11.5-2.2-12-1.7zM286.8 470.5c-.1.2-2.5.5-5.3.6-18.2 1-32.2 12.3-38.3 30.9-1.8 5.5-2.5 24.4-1.1 29.5.6 2.1 1.2 4.5 1.4 5.4.7 3.8 4.8 10.9 8.9 15.7 7.8 8.9 19.3 13.6 33.3 13.5 13.6-.1 25.1-4.8 32.9-13.5 8.9-9.8 12.4-20.9 11.9-37.5-.1-5.4-.5-10.3-.8-10.8-.3-.5-.8-2.2-1.1-3.8-1.6-8.6-10.2-19.9-18.8-24.7-5-2.8-21.6-6.6-23-5.3zm11.9 14.9c6 2.8 10.4 7.2 13.2 13 2.7 5.6 3.3 8.6 3.5 19.6.6 23.2-10.5 36.4-30.1 35.6-12.3-.4-20.8-6.1-26.1-17.4-2.4-5.1-2.7-6.8-2.7-16.7.1-6.1.6-12.9 1.3-15.2 1.7-5.8 7-13.2 11.7-16.5 7.7-5.3 20.7-6.3 29.2-2.4zM584 470.8c-17.2 1.3-31.5 13.2-37 31-2.7 8.5-2.9 23.9-.5 33.2 3.1 12.2 10.1 21.8 19.5 26.9 11.4 6.1 33.5 5.4 47.2-1.5l4.8-2.4v-14l-5 3.1c-11.4 7-27.5 8.7-37.3 4-8.4-4.1-14.2-12.9-15.3-23.5l-.6-5.6 31.6.1c17.4 0 32-.2 32.5-.5 1.2-.8.3-15.2-1.6-23-2.8-11.9-11.6-22.6-21.3-25.7-4.5-1.5-12.6-2.5-17-2.1zm10.1 13.3c8.2 2.5 14.9 12.5 14.9 22.4v3.2h-49l.5-3.1c.9-4.9 5.1-12.8 8.7-16.3 6.7-6.5 16-8.8 24.9-6.2zM464.3 472.8l-2.3.3V564l2.3.1c1.2 0 4.5.1 7.2.2h5V472.6h-5c-2.7-.1-6 0-7.2.2z"/></svg>