<svg xmlns="http://www.w3.org/2000/svg" viewBox="0 0 1638 744"><path d="M1063 152v-3h-5l1 3h4zm32 76v1h3l1-5v-2c-1 0-3 2-4 6zm-123 96c-1-3-9-14-26-32 0-4 6-9 17-15l34-29c7-10 12-25 13-47v-5c-2-14-12-26-33-35-12-9-33-13-64-14-26 2-60 12-101 28l-39 24v3l4-2 3 2 2-1h1v1c0 1-9 9-27 21l2 3h-2l-3-1-3 2v1l3 3-5-1c-4 1-8 3-12 7l2-7c6-27 10-50 12-70v-1l-12-12v-6h-2a1864 1864 0 0 1-120 158c-12 12-18 20-17 22-3 2-4 4-4 6l-2-1c-5 8-12 14-22 16l-10 2c-2 1-2 2-2 3v2l4-1v1l-9 3-15 4h-8c-2 2 6 0 3 1l-10 2c-6 2-10 1-10-1h-2l1 3-1-3-8 2c-1-4-12-18-33-41-1-5 7-12 22-20l44-39c10-12 16-33 18-60l-1-7c-2-20-16-35-43-48-15-10-44-16-85-17-34 3-78 15-133 36-15 11-32 22-51 33v3l5-2c2 0 4 1 4 3l3-2h2v1c0 2-12 11-36 28l2 3h-2l-3-1c0 1-2 2-5 2v2l4 4-6-1c-7 1-15 7-23 17l2 3 12-9v5l-5 2 4 6c8-8 17-16 26-22 5 1 7 3 8 5l3-1c26-19 51-33 77-41v3c-5 7-8 11-10 11 1 2 1 5 3 6a2333 2333 0 0 1-168 363l2 5c9-2 15-4 17-6h2v3h4l3-2c0 1 1 2 4 1v4c0 3-2 8-6 15-3 4-7 13-11 26v1h3c14-16 25-32 33-47 42-13 74-25 96-37 22-1 39-7 51-17v-2l-9 3h-2v-2c17-2 28-6 34-11 32-25 56-42 73-52 33-25 55-49 65-72l5-2h8l1-2h9l13-3-1 1 2-1h-1l2-1-1 1h4l1 3-57 91-13 16-6 21h1l7-3-2 8v3l2 2-1 1v2l3-1c4-3 5-6 5-9l8 1v1c-2 1-4 3-4 6l1 1h1c21-23 72-100 113-153-2-6 20-14 64-24h1c2 7-2 23-10 50-6 16-8 25-8 26l-10 35-15 51c-10 26-18 53-24 82l5 1 2-2 2 1-1-4h7c2 0 3-3 5-8-1-6 1-10 4-11 4-16 7-25 8-25 4-16 6-25 8-28 6-21 11-32 13-33l1 3-4 11c-8 33-15 60-23 79l2 10 1-1c19-40 46-119 81-237 1-11 6-19 15-24l-2-2-1-2c4 0 7-2 9-4l-11-4 18-75 6-5 1 4-4 1 3 5 20-17c3 1 5 3 5 4h3c20-15 39-25 58-32v3c-3 5-6 8-7 8l2 5a1797 1797 0 0 1-127 276l1 3c7-1 11-3 13-5h1v3h3l3-2 2 1 1 3-5 11c-3 3-6 10-9 20v1h3c11-12 19-24 25-36 32-10 56-19 73-28 17-1 30-6 39-13v-1l-7 2h-1v-2c12-1 21-4 25-8l55-40c39-28 57-55 55-81zm-7 1l1 10c-1 3-3 4-4 4l-1-17 4 3zm-757-81h-2v-3l7-1v2c-1 0-3 0-5 2zm-34 337c-4-2-8-3-11-2v-5c0-2 1-3 3-4 2 0 4 1 4 5l10-11 3 1c-1 10-4 15-9 16zm360-377c-2 0-5-5-10-15v-4c3 0 6 5 10 16v3zm-5-37l-1 3-49-20c33 1 49 7 50 17zM323 344l-7 1v-3l7-1v3zm-6-106h2v4l-6 8v-4l4-8zm-14 34v6h-1l-1-6h2zm-8 12h3c0 5-1 8-4 8h-2l3-8zm-6 17h2v1l-3 6h-3v-2c3 0 5-2 4-5zm-5 15l-1 9h-2l-1-8 4-1zm-56 160c-2 11-5 17-7 17v-2c-1-5 1-10 7-15zm-11 22l1 2c0 2-1 3-3 3l-1-1c0-2 1-3 3-4zm-3 46h6v2l-5 2h-4c0-2 1-3 3-4zm148-45c-29 14-46 24-51 29-32 11-47 18-47 21-28 11-47 19-56 24l-9-2c0-6 2-11 8-14 5-1 10 0 14 2 5-3 14-6 27-9v-3h-10l30-14h5v1c-9 1-14 4-15 9 0 2 1 3 4 2l10-7c12-2 47-21 105-55v3c0 1-5 6-15 13zm-88 29c9-1 16-4 22-10 2 0 4 0 4 3-4 0-12 3-24 10h-2v-3zm143-110l-45 35c-32 22-50 33-52 33-53 29-85 43-98 45h-2c2-6 25-54 70-143 20-2 51-11 94-28l10-1c22-2 38 3 48 13l1 6c-8 23-17 37-26 40zm-87-48l7-1 1 2-7 1-1-2zm100-17h5c5 2 8 4 8 6v1c-5 1-9-2-13-7zm14-80c-4 5-17 15-38 28-6 1-32 10-76 30l-6-2-1-3c0-6 2-14 9-24 3-18 7-28 11-30l36-82c0-6 8-9 24-12l5-1v5l30-4c29-3 44 3 45 17h3v-8h3c9 4 13 10 14 17 0 4-2 10-8 17-2 0-3-2-3-5h-4l-1 10c-14 22-25 34-32 34-6 9-9 13-11 13zm23 57c-3-2-6-3-8-2v-5l3-1 8 5c0 2-1 3-3 3zm23 28c3 1 5 3 5 4h-1l-1 1-3 1v-6zm2 14v-2l4-1v2l-4 1zm10 11l14-3 1 1-15 4v-2zm15 6l-15 2-1-1 13-4 6-1 1 2-4 2zm13-3c-1 0-2 0-3-2l4-1c2 0 3 0 3 2l-4 1zm37-39v-2l6-1 1 2-7 1zm39 239v-4h2c1 0 2 0 3 2v1l-5 1zm28-229l-3-1-12 4-2 1c-2 0-3 0-4-2l19-4 6-3 2 2-6 3zm14-5l-1-1 4-2 13-3v1l-16 5zm2-26l-4 2h-5c-1-2 9-6 29-10l2-1 1 2-23 7zm35-38c-2 16-7 25-17 28l-1-2-8 4-4 1-6-1v-3c-1-1 12-19 38-53l3 1c1 4-1 13-5 25zm62-53h-2v-2l5-1v2l-4 1zm-26 256c-3-1-6-2-8-1v-4c0-2 0-2 2-3 2 0 3 1 3 4l7-9 3 1c-1 8-3 12-7 12zm273-286l-7-12-1-2c3 0 6 4 8 12v2zm-3-28l-1 2-37-15c24 1 37 5 38 13zM834 312h-5l-1-2 6-1v3zm-4-81l1-1v4c-1 0-3 2-5 6v-3l4-6zm-11 26v5h-1l-1-5h2zm-6 9h2c0 4-1 6-3 6h-1l2-6zm-4 13h1v1l-2 4h-3v-1c3 0 4-2 4-4zm-5 11l-1 7h-1v-6l2-1zm-42 122c-2 8-4 12-6 13v-2c0-4 2-8 6-11zm-8 17v1l-3 3v-2c0-1 1-2 3-2zm-2 35l4-1v2l-4 1h-3c0-1 1-2 3-2zm112-35c-22 11-35 18-39 22-24 9-36 14-36 16l-42 18c-2 0-4 0-7-2 0-4 2-7 6-10 4 0 7 0 11 2 4-2 11-5 20-7v-3l-8 1 23-11h4v1c-7 1-11 3-11 6 0 2 1 3 2 2l8-5c9-2 36-16 80-42v2c0 1-4 5-11 10zm-67 22c6-1 12-3 16-7 2-1 3 0 3 2-3 0-9 2-18 7h-1v-2zm108-83l-33 27c-25 16-39 24-41 24-39 22-64 33-74 34h-1l53-108c15-1 39-8 71-21l8-1c16-1 29 2 37 10v5c-6 17-13 27-20 30zm-65-37h5v1h-5v-1zm75-13h4c4 2 6 3 6 5v1c-3 0-7-2-10-6zm11-61c-4 5-13 12-29 22-5 0-24 8-57 22l-5-1-1-2c0-5 2-11 7-18 2-14 5-22 8-24l28-62c0-4 6-7 18-9h4v3l22-3c22-2 34 3 35 13h2v-6h2c7 4 10 8 10 13 1 3-1 8-5 13-2 0-3-1-3-4l-2 1-1 7c-11 17-19 26-24 26l-9 9zm12 42l-1-4h3l6 3c0 2-1 3-3 3l-5-2zM472 542h-2l-3 2c1 2 2 2 3 2 2 0 3-1 2-3v-1zm-10-20l1 1c1 0 2-1 2-3l-1-1c-1 0-2 1-2 3zm71-167l3-1-1-3-3 1 1 3zm907 76c-30 7-34 5-41 6l1 2h4l3-2c30-3 33-2 33-5v-1zm-164 21v3h1v-3h-1zm-19-65l-2-1c-2 6-4 9-3 10v1c2 0 4-4 5-10zm189 43v3l5 1v-3l-5-1zm-207 26l-7-1-1 2v2l41-4v-2l-33 3zm-18-89v-1h-2l-2 1 1 3c2-1 3-1 3-3zm244 45h2c1 0 2-1 2-3l-1-2c-7 0-10 1-16 4v-2l-8 1-2-4-5 1c-5 0-7 0-10 2v-1h-5l-3 2-1-2-2 2v-1l-6-1h-2v3l4 1 3-1 3 1 3-1v1c-15 4-15 3-26 5l-3-1-2-2 6-1 3 1 7-3v-3c-15 3-9 1-28 3h-1v-2l25-4 1 1 3-2h2c8 0 11 1 28-3l1 1 2-2h3c0-2 4-3 5-3v-3c-31 7-38 5-47 7v-1c-8 2-8 1-10 1l-3 2-1-2-26 5-1-1c-13 2-9 3-27 5l-4 1-1-1-11 1-7 2c0-1-1-2-2-1l-10 2c-2 0 1-1-1-2l-2 2h-13l-19 2h-7l-1 1c-8-1-13-2-13-4 1-8 3-12 6-12h1l-1 3h2l3-4v-3h-2l-1-2 1-5 6-10v3h3v-3l-2-2 5-3v-1h-4v-4c8-16 11-25 11-28l3 2c2-1 2-2 2-3h-2v-1c-1-2 0-4 1-6 4-4 6-8 5-13l1 2a503 503 0 0 0 35-83c22-60 21-66 24-80h-2l-1 5-4-1-1-1c0-5 2-11 7-18h1l2 8h3l2-10c0-2-1-2-3-3l-3 2 1-14h-2l-3-5-14 1-2-4c0-2 3-3 10-4l3 1 2-2c0 1 1 2 2 1l3-1 1 1h1v-3h-15l-3 2v-2l-115 10-14-1c0 2-1 2-3 2l-3-1-9 3-12-1-5 2a1893 1893 0 0 0 16 0l-22 5-3-2-46 8c-2-1-4-2-7-1l-12 2-23 10 2 3 5-2h8l-1 8c-8 3-12 8-13 14-11 5-17 9-17 11v1h2l3-2 3 5 1 5-56 118-51 122c-11 3-18 8-19 14 0 2 3 3 9 3l1 3-3 5v6c1 3 9 5 25 7l1-2-3 21h2c6-9 10-15 9-19h2c1 0 3 2 5 6-2 1-9 17-21 48l2 3 1-1c15-37 24-57 28-61l100-10 3-2 2 1h3l3-2c0 1 1 2 2 1l36-3c9 0 14-3 13-8 0-2 6-3 17-5l5 1 17-3c0-6 2-9 6-9l-1-3-11 3-14-2-5 2h-25l-3 2-1-1h-2l-3 2-8-3-3 2-6 1v-2c32-3 48-8 47-13 2 0 4 1 4 3l9-3v-2l-77 2-2 1h-9c-3 0-5 0-6 2l-4-2c-9 1-17 2-21 4h-22l-18 2-8-1a395 395 0 0 1 47-104l5 1 12-4 6 1c11-1 23-4 37-9l8 1 10-2 28-3c12-1 24-3 38-8v-3c-5 1-8 0-8-2 0-4-4-6-11-5l-1-3 8-2 20-2v-3h-13v-3l8-1c2 0 3-1 3-3-11 0-16 0-16-2a666 666 0 0 1-115 4l-2-3c20-41 31-62 34-62l-2 8v1h3c8-19 14-28 20-28 23-2-4-4 46-12l4 2 81-13v-3l-19 2v-3l5-2 1 2 4-2c3-1 5 0 7 1l15-3 12-2c3-1 4-3 4-4v-2h-10c0-2 0-3 2-4l22-2 10-2 1 1 4-2 2 1-5 11-2 1-2-6-1 1c-26 72-38 106-62 161-4 14-8 22-11 24 0 2 1 2 3 2 0 7-1 14-5 21-11 32-19 49-23 53l3 15c0 1-1 2-3 2l-2 1c-1-5-2-7-5-6h-1c-4 5-6 11-8 18h3c3-2 5-5 5-8h5l3 1c-3 3-4 6-4 9l2 2-4 8 1 1 9 3c3 0 5-1 8-3h34l9-4h24l5-1 2-1v1c11-1 11 0 20 1v1l-6 1v2l5-2c1 0 2 1 2 3l-8 2-2-1-6 1h-5l-1 1c1 1 1 2 3 2h4l22-2 8-2 1 1 4-1 8-1 18-3 1-1v1l25-5 1 1c5-1 2-1 3-2l1 1h4l-1-3h-9l-8 1-18 1v-1l10-2h4l2-2v2c14-2 19 2 86-12 3 0 3-3 5-10h-3c-6 2-8 1-19 2-1 0-2 0-2-2v-1h10c2 0 6 0 11-3l-1 1zm-492 8h-5l8-21h3l-6 21zm6-23v-1c0-2 1-3 3-4v2c0 2-1 3-3 3zm62 48v2h-8v-1l8-1zm-9 0l-8 5-9-1h-3l-1-3 21-1zm63-291h-5v-2l3-3h2l3 1c0 2-1 3-3 4zm72-14h1v2l-4 1c0-2 1-3 3-3zm-18 6l-8-1v-1c10-1 13-2 18-4 1 2 2 2 3 2l1 3h-3l-6-1-5 2zm8 26v-1l12-2v2l-12 1zm13-10v-2h5v1l-5 1zm1-20h-1l1-3 13-1v2l-13 2zm7 28l-1-3 6-1c2 0 3 1 3 3l-9 1zm33-46l-7 2h-1l-13-1 21-1zm-7 32v1l-10 1v-1l10-1zm16 7c0-1-2-2-6-2l-10 3h-8l-2-3 9 1 19-3h10l1 2-13 2zm102-26h2l12-8c-4 16-9 28-17 35l-5-3 8-24zm-17 30l1-1c-2 4-4 6-5 6v-4l4-2zm-11 26c2-11 5-17 7-18v1c-1 10-3 15-6 16v6l-3 8h-1l-1-9c1 0 3-1 4-4zm-5 14l-3 11h-1v-4l4-7zm-80 235l-1-1 3-1v4l-2-2zm115 3l-2-2-6 1v-1l16-2v2c-5 0-7 1-8 2zm-8-4zm1-18l-9 1v-1l8-1 7-2c0 1 0 2 1 1l11-2c2 0 3 1 3 3l-21 1zm30-2l-8-1-1-1 8-1v1c-1 1 2 1 1 2zm1-2l-1-1h5v1h-4zm9 0v-1l3-2c2 0 3 1 3 3h-6zm12-2v-1l5-1v2h-5zm7 0c0-2 0-3 2-3l1 2 1-1 1 2-5-1zm-76 32v-2h-1l1 2zm176-45c1-1 1-1-1-2-1 1 1 2-1 2v1l2-1-2 1-2 2 5-1v-3l-1 1zm7 5v3l6-1-6-2zm-9-4z"/><path fill="#F9DC3E" d="M1090 220l1 1h3l1-5-1-2-4 6zm-31-76v-3h-5v3h5zm-92 172c0-3-8-14-25-32 0-4 5-9 17-15l33-29c8-10 12-25 14-47l-1-5c-1-14-12-26-32-35-12-9-34-13-65-14-26 2-59 12-101 28-11 8-24 16-39 24v3l4-2c2 0 3 1 3 2l3-1h1v1c0 1-9 9-27 21l1 3h-1l-3-1-4 2v1l3 3-4-1c-4 1-8 3-12 7l1-7c6-27 11-50 13-70v-1c-5-3-9-7-13-12v-6h-1a1864 1864 0 0 1-121 158c-11 12-17 20-16 22-4 2-5 4-4 6l-2-1c-5 8-12 14-22 16l-11 2-2 3 1 2 3-1 1 1-9 3-16 4h-8c-1 2 7 0 4 1l-11 2c-6 2-9 1-10-1h-1v3-3l-9 2c0-4-11-18-33-41 0-5 7-12 23-20l44-39c9-12 15-33 17-60v-7c-2-20-16-35-43-48-16-10-44-16-85-17-34 3-79 15-133 36-15 11-32 22-52 33l1 3 5-2c2 0 3 1 3 3l4-2h2v1c0 2-12 11-36 28l2 3h-2l-4-1c0 1-1 2-5 2v2l4 4-5-1c-8 1-15 7-23 17l2 3 11-9 1 5-5 2 4 6c8-8 16-16 26-22 5 1 7 3 7 5l4-1c26-19 51-33 76-41l1 3c-5 7-8 11-10 11 0 2 1 5 3 6a2333 2333 0 0 1-168 363l2 5c9-2 14-4 17-6h2v3h3l4-2c0 1 1 2 3 1v4c1 3-1 8-5 15-4 4-8 13-12 26v1h4c14-16 25-32 32-47 42-13 74-25 97-37 22-1 39-7 51-17l-1-2-8 3h-2v-2c16-2 28-6 34-11 32-25 56-42 72-52 34-25 55-49 65-72l6-2h8l1-2h9l12-3 2-1-1 1h5l1 3-57 91-13 16-6 21h1l6-3-2 8 1 3 1 2v3l2-1c4-3 6-6 5-9l8 1 1 1c-3 1-4 3-4 6v1h1c21-23 72-100 113-153-1-6 20-14 64-24h2c1 7-2 23-11 50-5 16-8 25-7 26-7 21-11 33-10 35l-16 51c-10 26-18 54-23 83h4l3-2 1 1-1-4h7c2 0 4-3 5-7 0-7 1-11 4-12l8-25c4-16 7-25 9-28 6-21 10-32 13-32v2l-4 11c-7 34-15 60-23 79l3 10 1-1c19-40 45-119 80-237 1-11 6-19 15-24l-2-2v-2c4 0 7-2 8-4l-10-4 17-75 7-5v4l-4 1 4 5 19-17c4 1 6 3 6 4h2c20-15 40-25 59-32v3l-7 8 1 5a1797 1797 0 0 1-127 276l2 3c7-1 11-3 13-5h1v3h3l2-2 3 1v3c0 2-1 6-4 11-3 3-6 10-9 20v1h2c11-12 20-24 25-36 32-9 57-19 73-28 17-1 30-5 39-13v-1l-6 2h-2v-1c12-2 21-5 26-9 24-18 42-32 55-39 38-29 56-56 54-81zm-6 1v10l-3 4-2-17 5 3zm-758-81h-1l-1-3 7-1v2l-5 2zm-33 337c-4-2-8-3-11-2v-5c-1-2 0-3 3-4 2 0 3 1 4 5l9-11 4 1c-1 10-4 15-9 16zm360-377c-2 0-5-5-10-15l-1-4c4 0 7 5 10 16l1 3zm-5-37l-1 3-49-20c32 1 49 7 50 17zM318 336l-7 1v-3l7-1v3zm-5-106h1l1 4c-2 1-4 3-6 8l-1-4c3-4 5-6 5-8zm-15 34l1 6h-2v-6h1zm-7 12h3c0 5-2 8-5 8h-1l3-8zm-6 17h2v1l-3 6h-3l-1-2c4 0 5-2 5-5zm-6 15l-1 9h-1l-1-8 3-1zm-56 160c-2 11-4 17-7 17v-2c-1-5 2-10 7-15zm-10 22v2c0 2-1 3-3 3v-1c0-2 1-3 3-4zm-3 46h5v2l-5 2h-3c0-2 1-3 3-4zm148-45c-29 14-46 24-51 29-32 11-48 18-47 21-29 11-47 19-56 24l-9-2c-1-6 2-11 8-14 4-1 9 0 14 2 5-3 14-6 27-9l-1-3h-10l30-14h5v1c-8 1-13 4-14 9 0 2 1 3 3 2l10-7c13-2 48-21 105-55l1 3c0 1-5 6-15 13zm-88 29c8-1 15-4 21-10 3 0 4 0 4 3-4 0-12 3-23 10h-2v-3zm142-110l-44 35c-33 22-50 33-53 33-52 29-85 44-97 45h-2c1-6 25-54 70-143 19-2 51-11 93-28l10-1c22-1 38 3 49 13v6c-8 23-16 37-26 41zm-86-48l7-1v2l-7 1v-2zm100-17h5c5 2 7 4 7 6v1c-4 1-9-2-12-7zm14-80c-5 5-18 15-38 28-7 1-32 10-76 30l-7-2v-3c-1-6 2-14 8-24 4-18 7-28 11-30l37-82c-1-6 7-9 23-12l5-1 1 5 29-4c29-3 44 3 45 17h4l-1-8h4c8 4 13 10 13 17 1 4-2 10-7 17-2 0-3-2-4-5h-3l-1 10c-15 22-26 34-32 34-6 9-10 13-11 13zm22 57c-3-2-5-3-7-2l-1-5 4-1 7 5c0 2-1 3-3 3zm23 28l6 4h-2l-1 1-2 1-1-6zm2 14v-2l4-1 1 2-5 1zm11 11l14-3v1l-15 4 1-2zm14 6l-15 2v-1l13-4 6-1v2l-4 2zm14-3c-2 0-3 0-4-2l4-1c2 0 3 0 4 2l-4 1zm36-39v-2l7-1v2l-6 1zm40 239v-4h1c2 0 3 0 3 2l1 1-5 1zm27-229l-3-1-11 4-3 1c-1 0-2 0-3-2l18-4 6-3 2 2-6 3zm14-5v-1l3-2 13-3 1 1-17 5zm2-26l-3 2h-6c0-2 9-6 29-10l3-1v2l-23 7zm35-38c-1 16-7 25-17 27v-1l-9 4h-9l-1-3c0-1 12-19 38-53l3 1c1 4 0 13-5 25zm62-53h-1v-2l5-1v2l-4 1zm-25 256c-3-1-6-2-8-1l-1-4c0-2 1-2 3-3l3 4 7-9 2 1c-1 8-3 12-6 12zm273-286c-1 0-4-4-8-12v-2c2 0 5 4 8 12v2zm-4-28l-1 2-37-15c25 1 38 5 38 13zM829 304h-5v-2l5-1v3zm-4-81l2-1v4c-2 0-3 2-5 6v-3l3-6zm-11 26l1 4-2 1v-5h1zm-6 9h3c0 4-1 6-3 6h-2c2-2 2-5 2-6zm-4 13h1v1l-2 4h-2l-1-1c3 0 4-2 4-4zm-4 11l-1 7h-1l-1-6 3-1zm-43 122c-2 8-3 12-5 13v-2c-1-4 1-8 5-11zm-8 17v1c1 1 0 2-2 3v-2l2-3zm-2 35l4-1v2l-4 1h-2c0-1 0-2 2-2zm112-35c-22 11-35 18-39 22-24 9-36 14-36 16-21 8-35 14-41 18-2 0-4 0-7-2-1-4 1-7 5-10 4 0 8 0 11 2 4-2 11-5 21-7v-3l-8 1c1-1 8-5 23-11h4v1c-7 1-11 3-12 6 0 2 1 3 3 3l7-6c10-2 37-16 80-42l1 2c0 1-4 5-12 10zm-67 22c7-1 12-3 17-7 2-1 3 0 3 2-3 0-9 2-18 7h-1l-1-2zm109-83l-34 27c-25 16-38 24-40 24-40 22-64 33-74 34h-1c1-4 18-40 53-108 15-1 38-8 71-21l8-1c16-1 28 2 36 10l1 5c-7 17-13 27-20 30zm-66-37h5l1 1h-6v-1zm76-13h4c4 2 6 3 6 5v1c-4 0-7-2-10-6zm10-61c-3 4-13 12-28 22-5 0-24 8-58 22l-5-1v-2c-1-5 2-11 6-18 3-14 6-22 9-24l28-62c-1-4 5-7 17-9h4v3l23-3c22-2 33 3 34 13h3l-1-6h3c6 4 10 8 10 13 0 3-2 8-5 13-2 0-3-1-3-4h-3l-1 8c-11 17-19 26-24 26-4 6-7 9-9 9zm12 42v-4h2l6 3c0 2-1 3-2 3l-6-2zM468 534h-3l-2 2c0 2 1 2 3 2s2-1 2-3v-1zm-10-20v1c2 0 2-1 2-3v-1c-2 0-3 1-2 3zm71-133l1-1h-1l-1 1zm-1-34l3-1v-3l-3 1v3zm707 101l-7-1-1 2v2l40-4v-2l-32 3zm37-4v3-3zm170-22v3l4 1v-3l-4-1zm-6 1c-31 7-35 5-41 6v2h4l3-2c30-3 34-2 34-5v-1zm-183-44l-3-1-3 10v1c2 0 4-3 6-10zm-37-20v-1h-1l-3 1 2 3c2 0 3-1 2-3zm80 82v-2h-1v2h1zm165-37h2l1-3-1-2c-7 0-10 1-15 4l-1-2-8 1c0-2-1-4-2-3h-4c-5 0-8 0-10 2l-1-1h-5l-3 2v-2l-2 2v-1l-7-1h-2l1 3 3 1 3-1 4 1 3-1v1c-16 4-16 3-27 5l-2-1c-2 0-2-1-2-2l5-1 4 1 7-3v-3c-16 3-9 1-29 3h-1v-2l25-4 1 1 3-1 2-1c9 0 12 1 29-3v1l3-2h2c0-2 4-3 5-3v-3c-30 7-38 5-46 7v-1c-8 2-9 1-11 1l-2 2-1-2h-1l-25 5-1-1c-14 2-10 3-28 5l-3 1-1-1-11 1-8 2-1-1-11 2c-2 0 1-1 0-1l-3 1h-12l-19 3-8-1c1 1 0 1-1 1-8-1-12-2-12-4 1-7 3-11 6-12h1l-1 3h1l4-4v-3h-3v-2l1-5 6-10v3h3l-1-3-1-2 5-3v-1h-4v-4l11-27 2 1c2 0 3-1 3-3h-3v-1l1-5c4-5 6-9 6-14l1 2a503 503 0 0 0 35-83c22-60 21-66 24-80h-3l-1 5-4-1v-1c0-5 2-11 6-18h2l2 8h2l2-10c0-2-1-2-3-3l-2 2v-14h-1l-4-5-14 1-2-4c0-2 4-3 10-4l3 1 3-2c0 1 0 2 1 1l3-1 2 1h1v-3h-16l-3 2v-2l-114 10h-14l-3 1-3-1-10 3-11-1-6 2a1893 1893 0 0 0 16 0l-21 5-3-1-47 7-6-1-13 2-22 10 1 3 5-2 8 1-1 7c-7 3-12 8-13 14-11 5-16 9-16 11v1h1l3-1 4 4v6c1 1-18 41-56 117l-51 122c-11 3-17 8-19 14 0 2 4 3 10 4v2l-3 5 1 6c0 3 8 5 24 7l2-2-3 21h1c7-9 10-15 10-18l1-1c2 0 3 2 5 6-2 1-9 17-21 48l2 3 2-1c15-37 24-57 28-61l100-10 3-2 1 1h4l3-2c0 1 0 2 1 1l36-3c10 0 14-3 14-8 0-2 5-3 17-5l5 1c-1-1 5-2 17-3 0-6 2-9 5-9v-3l-11 3-14-2-5 2h-25l-3 2-2-1h-1l-3 2-8-3-4 2-6 1v-2c32-3 48-8 48-13 2 0 3 1 3 3l10-3-1-2-77 2-1 1h-10c-2 0-4 0-6 2l-3-2c-10 1-17 2-22 4h-22l-17 2-8-1a395 395 0 0 1 46-104l5 1 12-4 7 1c10-1 23-4 37-9l8 1 9-2 28-3c12-1 25-3 39-8v-3c-6 1-8 0-8-2-1-4-5-6-12-5v-3l8-2 20-2-1-3h-12v-3l7-1c3 0 3-1 3-3l-16-1a666 666 0 0 1-114 4l-2-3c19-42 31-62 34-63l-3 8 1 1h3c7-19 14-28 19-28 23-2-3-4 46-12l5 2 80-13v-3l-18 2v-3l5-2v2l4-2c4-1 6 0 8 1l15-3 12-2 4-4-1-2h-10c0-2 1-3 3-4l21-2 10-2 2 1 4-2 1 1-4 11-3 1-1-6-2 1c-26 72-37 106-61 161-5 14-8 22-12 24 0 2 1 2 3 2 1 7-1 14-5 21-11 32-18 49-22 53l2 15c1 1 0 2-2 2l-3 1c0-5-1-7-4-6h-2c-3 5-6 11-7 18h2c4-2 5-5 5-8h5l3 1-3 9 1 2-3 8v1l10 3 8-3h33l10-4h24l4-1 2-1v1c11-1 12 0 20 1v1l-6 1 1 2c1 0 3 0 4-2 2 0 3 1 3 3l-8 2-3-1-6 1h-4l-1 1c0 1 1 2 3 2h4l22-2 8-2 1 1 4-1 8-1 18-3 1-1v1l25-5v1c5-1 2-1 4-2l1 1h3v-3h-9l-8 1-19 1v-1l10-2h4l2-2v2c15-2 20 2 86-12 4 0 4-3 6-10h-3c-6 2-9 1-19 2-1 0-2 0-2-2v-1h10c2 0 5 0 11-3l-1 1zm-492 8h-5l7-21h3c1 2-1 10-5 21zm5-23v-1c0-2 1-3 3-4v2c0 2-1 3-3 3zm63 48v2h-8v-1l8-1zm-10 0c0 1-2 3-7 5l-10-1h-3v-3l20-1zm64-291h-5v-2l3-3h1l3 1c1 2 0 3-2 4zm71-14h2v2l-5 1c0-2 1-3 3-3zm-18 6l-7-1v-1l18-4c0 2 1 2 3 2v3h-3l-5-1-6 2zm9 26v-1l11-2v2l-11 1zm12-10v-2h6v1l-6 1zm2-20h-2l1-3 13-1v2l-12 2zm6 28v-3l5-1c2 0 3 1 3 3l-8 1zm34-46l-7 2h-2l-13-1 22-1zm-8 32v1l-10 1v-1l10-1zm16 7c0-1-2-2-5-2l-10 3h-8l-3-3 9 1 20-3h10v2l-13 2zm102-26h3c3-3 7-6 12-8-4 16-10 28-17 35l-6-3c5-12 8-20 8-24zm-17 30l2-1c-2 4-4 6-5 6l-1-4 4-2zm-11 26c3-11 5-17 8-18v1c-2 10-4 15-7 16l1 6c-3 3-4 6-4 8h-1l-1-9c2 0 3-1 4-4zm-4 14l-3 11h-2v-4l5-7zm-81 235v-1l3-1v4c-2 0-3-1-3-2zm115 3l-1-2-7 1v-1h1l15-2v2l-8 2zm-7-4v1-1zm0-18l-8 1v-1l8-1 6-2c0 1 1 2 2 1l11-2c1 0 2 1 2 3l-21 1zm30-2l-8-1v-1l8-1v1c-1 1 2 1 0 2zm1-2v-1h4v1h-4zm9 0v-1l3-2c2 0 3 1 4 3h-7zm12-2v-1l5-1v2h-5zm7 0c0-2 1-3 2-3l2 2 1-1 1 2-6-1zm99-12zm2-1c0-1 1-1-1-2-1 1 1 2-1 2v1l1-1-1 1-2 2 4-1h1l-1-3v1zm7 5h-1v3l6-1-5-2z"/></svg>
