<svg xmlns="http://www.w3.org/2000/svg" xmlns:xlink="http://www.w3.org/1999/xlink" width="512" height="512"><defs><linearGradient id="c"><stop offset="0" stop-color="#bfbbb6"/><stop offset=".7" stop-color="#bfbbb6"/><stop offset="1" stop-color="#d41704"/></linearGradient><linearGradient id="b"><stop offset="0" stop-color="#bfbbb6"/><stop offset=".5" stop-color="#bfbbb6"/><stop offset="1" stop-color="#11ee47"/></linearGradient><linearGradient id="a"><stop offset="0" stop-color="#bfbbb6"/><stop offset=".6" stop-color="#bfbbb6"/><stop offset="1" stop-color="#11b2ee"/></linearGradient><radialGradient id="f" cx="107.1" cy="191.8" r="86.8" fx="107.1" fy="191.8" gradientTransform="matrix(1.3667 0 0 .96453 -39.3 7.9)" gradientUnits="userSpaceOnUse" spreadMethod="pad" xlink:href="#a"/><radialGradient id="e" cx="267.4" cy="184.8" r="60.3" fx="267.4" fy="184.8" gradientTransform="matrix(2.38314 .8815 -.5708 1.54318 -264.3 -336)" gradientUnits="userSpaceOnUse" xlink:href="#b"/><radialGradient id="d" cx="422.7" cy="184.8" r="66" fx="422.7" fy="184.8" gradientTransform="matrix(2.34902 0 0 1.33148 -570.2 -61.2)" gradientUnits="userSpaceOnUse" xlink:href="#c"/></defs><rect width="512" height="512" fill="#fafafa" fill-rule="evenodd" rx="160" ry="160"/><g><path fill="url(#d)" d="M356.7 272.7V96.8h64q29.4 0 45.2 10.8 15.9 10.8 15.9 30.4 0 14.3-9.7 25-9.6 10.6-24.6 14.8v.5q18.8 2.3 30 13.8 11.3 11.6 11.3 28.1 0 24.2-17.3 38.4-17.3 14.1-47.3 14.1zM396.3 126v41.7h17.4q12.3 0 19.2-5.9 7.2-6 7.2-16.4 0-19.4-29-19.4zm0 71.2v46.3h21.4q13.8 0 21.5-6.4 7.9-6.3 7.9-17.4 0-10.5-7.8-16.5-7.6-6-21.3-6z"/><path fill="url(#e)" d="M207.8 266v-39.3q10.6 9 23.2 13.5 12.5 4.4 25.2 4.4 7.5 0 13-1.3 5.7-1.4 9.3-3.7 3.8-2.5 5.7-5.7 1.8-3.3 1.8-7 0-5.2-3-9.3-2.9-4-8-7.4-5-3.5-12-6.7t-15.1-6.5q-20.6-8.6-30.8-21-10-12.3-10-29.9 0-13.7 5.5-23.5 5.5-10 15-16.3 9.5-6.4 22-9.3 12.5-3.1 26.5-3.1 13.7 0 24.3 1.7 10.6 1.6 19.6 5v36.7q-4.4-3-9.7-5.4-5.1-2.3-10.7-3.8-5.5-1.6-11-2.3-5.4-.8-10.3-.8-6.8 0-12.3 1.4-5.5 1.2-9.3 3.5-3.8 2.4-5.9 5.7-2 3.2-2 7.2 0 4.4 2.3 8 2.3 3.4 6.6 6.6 4.3 3 10.4 6.1 6.1 3 13.9 6.2 10.5 4.4 18.9 9.4 8.4 5 14.4 11.2 6 6.2 9.2 14.3 3.2 8 3.2 18.7 0 14.7-5.6 24.8-5.5 9.9-15.1 16.1-9.6 6.2-22.3 8.9-12.7 2.7-26.8 2.7-14.4 0-27.6-2.5-13-2.4-22.5-7.3z"/><path fill="url(#f)" d="M194 272.7h-43.3l-12.5-39.1H75.7l-12.4 39.1h-43l64-175.9h47zm-64.8-69.5l-19-59.2q-2-6.6-2.9-15.8h-1q-.6 7.8-3 15.4L84 203.2z"/></g><g fill-opacity=".4"><path d="M356.7 96.8v175.9h8V104.8h64c19.6 0 34.7 3.6 45.2 10.8l1.4 1a37.3 37.3 0 0 0-9.4-9c-10.5-7.2-25.6-10.8-45.2-10.8zm79.3 36.7a18.4 18.4 0 0 1 4.1 11.9c0 7-2.4 12.4-7.2 16.4a29 29 0 0 1-19.2 6h-17.4l8 8h17.4a29 29 0 0 0 19.2-6c4.8-4 7.2-9.5 7.2-16.4 0-3.7-.8-6.9-2.4-9.5-.7-1.2-1.6-2.3-2-2.6l-7.7-7.8zm11.5 44.8l8 8a50 50 0 0 1 25.3 9.7 42.3 42.3 0 0 0-16.8-13.3c-4.4-2-11-3.8-16.5-4.4zm-2.9 31c1.6 3 2.5 6.5 2.5 10.4 0 7.4-2.7 13.2-7.9 17.4a32.8 32.8 0 0 1-21.5 6.4h-21.4l8 8h21.4c9.2 0 16.4-2.1 21.5-6.4 5.2-4.2 7.9-10 7.9-17.4a19.8 19.8 0 0 0-10.5-18.4zM276 93.9c-9.2 0-18 1-26.4 3-8.3 2-15.7 5.1-22 9.4a47 47 0 0 0-15 16.3A47.3 47.3 0 0 0 207 146a46 46 0 0 0 17.8 37.6A46 46 0 0 1 215 154a47 47 0 0 1 5.6-23.5 47 47 0 0 1 15-16.3 67.1 67.1 0 0 1 22-9.3c8.3-2 17.2-3.1 26.5-3.1A152.6 152.6 0 0 1 320 106v-5.4c-6-2.3-12.5-4-19.6-5-7-1.1-15.2-1.7-24.3-1.7zM258.7 158l.5.8c1.5 2.3 3.7 4.5 6.6 6.6 2.8 2 6.3 4.1 10.4 6.1 4.1 2 8.7 4 13.9 6.2 7 3 13.3 6 18.9 9.4 3.4 2 6.5 4.1 9.3 6.4l-2.9-3.2c-4-4.2-8.8-8-14.4-11.2-5.6-3.3-11.9-6.5-19-9.4-5-2.1-9.7-4.2-13.8-6.2a81 81 0 0 1-9.5-5.5zm25.2 60.7a15.3 15.3 0 0 1 .4 15.2c-1.2 2.2-3.1 4-5.7 5.7a30.8 30.8 0 0 1-9.3 3.7 75.4 75.4 0 0 1-61.4-16.6V266a69 69 0 0 0 8 3.4v-34.7a76.4 76.4 0 0 0 48.4 18c5 0 9.3-.5 13-1.4a34 34 0 0 0 9.3-3.7 14.4 14.4 0 0 0 7.5-12.8c0-3.4-1-6.5-3-9.2a30.5 30.5 0 0 0-7.2-6.9z"/><path d="M138.2 233.6l8 7.9 10.2 31.1-5.7.1zM92 211h45l-21.8-75-7.9-7.9c.3 4.5 1.3 9 2.3 13.5l19.6 61.5h-45zm37.2-8l7.8 8M84.4 96.8h47l2.6 7.7H92.2L31 272.8l-10.7-.1z"/></g><g><path fill="#5f5050" d="M160.4 412.7h-10.7v-38.5q0-11-3.4-16t-11.6-5q-6.8 0-11.7 6.3-4.7 6.2-4.7 15v38.2h-10.8v-39.8q0-19.7-15.2-19.7-7 0-11.7 6-4.5 5.8-4.5 15.3v38.2H65.3v-67h10.8v10.6h.2q7.2-12.1 20.8-12.1 6.9 0 12 3.8t7 10q7.5-13.8 22.2-13.8 22.1 0 22.1 27.2zm48.3 1.6q-14.8 0-23.7-9.4-8.9-9.4-8.9-24.9 0-16.9 9.3-26.4 9.2-9.4 24.9-9.4 15 0 23.3 9.2 8.5 9.2 8.5 25.6 0 16-9.1 25.7-9 9.6-24.3 9.6zm.8-61.1q-10.3 0-16.3 7t-6 19.4q0 12 6 18.8 6.1 6.8 16.3 6.8 10.4 0 16-6.7t5.6-19.2q0-12.5-5.6-19.3-5.6-6.8-16-6.8zm60.7 49.8h-.3v9.7h-10.7v-99.2H270v44h.3q8-13.3 23.2-13.3 12.8 0 20.1 9 7.3 9 7.3 24 0 16.9-8.1 27-8.2 10-22.4 10-13.3 0-20-11.2zm-.3-27v9.4q0 8.3 5.4 14 5.4 5.8 13.7 5.8 9.8 0 15.3-7.4 5.5-7.5 5.5-20.7 0-11.2-5.1-17.6-5.2-6.3-14-6.3-9.4 0-15 6.5-5.8 6.5-5.8 16.3zm73.6-47.3q-3 0-5-2t-2-5q0-3 2-4.9 2-2 5-2t5 2q2 2 2 5 0 2.9-2 4.9-2 2-5 2zm5.2 84H338v-67h10.7zm32.4 0h-10.7v-99.2h10.7zm75.6-30.8h-47.3q.3 11.2 6 17.3 5.8 6 15.8 6 11.4 0 20.8-7.4v10q-8.8 6.5-23.3 6.5-14.2 0-22.3-9.1-8.1-9.2-8.1-25.7 0-15.7 8.8-25.5 9-9.8 22-9.8 13.2 0 20.4 8.5 7.2 8.5 7.2 23.6zm-11-9.1q0-9.3-4.5-14.5-4.4-5.1-12.2-5.1-7.6 0-13 5.4-5.2 5.4-6.5 14.2z"/></g></svg>