<svg xmlns="http://www.w3.org/2000/svg" xmlns:xlink="http://www.w3.org/1999/xlink" width="1068.4" height="201.9"><defs><linearGradient id="c"><stop offset="0" stop-color="#bfbbb6"/><stop offset=".7" stop-color="#bfbbb6"/><stop offset="1" stop-color="#d41704"/></linearGradient><linearGradient id="b"><stop offset="0" stop-color="#bfbbb6"/><stop offset=".5" stop-color="#bfbbb6"/><stop offset="1" stop-color="#11ee47"/></linearGradient><linearGradient id="a"><stop offset="0" stop-color="#bfbbb6"/><stop offset=".6" stop-color="#bfbbb6"/><stop offset="1" stop-color="#11b2ee"/></linearGradient><radialGradient id="f" cx="107.1" cy="191.8" r="86.8" fx="107.1" fy="191.8" gradientTransform="matrix(1.3667 0 0 .96453 -39.6 -76)" gradientUnits="userSpaceOnUse" spreadMethod="pad" xlink:href="#a"/><radialGradient id="e" cx="267.4" cy="184.8" r="60.3" fx="267.4" fy="184.8" gradientTransform="matrix(2.38314 .8815 -.5708 1.54318 -264.6 -419.9)" gradientUnits="userSpaceOnUse" xlink:href="#b"/><radialGradient id="d" cx="422.7" cy="184.8" r="66" fx="422.7" fy="184.8" gradientTransform="matrix(2.34902 0 0 1.33148 -570.5 -145.1)" gradientUnits="userSpaceOnUse" xlink:href="#c"/></defs><path fill="url(#d)" d="M356.4 188.8V12.9h64q29.4 0 45.2 10.8 15.9 10.8 15.9 30.4 0 14.3-9.7 25-9.6 10.6-24.6 14.8v.5q18.8 2.3 30 13.8 11.3 11.6 11.3 28.1 0 24.2-17.3 38.4-17.3 14.1-47.3 14.1zM396 42.1v41.7h17.4q12.3 0 19.2-5.9 7.2-6 7.2-16.4 0-19.4-29-19.4zm0 71.2v46.3h21.4q13.8 0 21.5-6.4 7.9-6.3 7.9-17.4 0-10.5-7.8-16.5-7.6-6-21.3-6z"/><path fill="url(#e)" d="M207.5 182.1v-39.3q10.6 9 23.2 13.5 12.5 4.4 25.2 4.4 7.5 0 13-1.3 5.7-1.4 9.3-3.7 3.8-2.5 5.7-5.7 1.8-3.3 1.8-7 0-5.2-3-9.3-2.9-4-8-7.4-5-3.5-12-6.7t-15.1-6.5q-20.6-8.6-30.8-21-10-12.3-10-29.9 0-13.7 5.5-23.5 5.5-10 15-16.3 9.5-6.4 22-9.3 12.5-3.1 26.5-3.1 13.7 0 24.3 1.7 10.6 1.6 19.6 5v36.7q-4.4-3-9.7-5.4-5.1-2.3-10.7-3.8-5.5-1.6-11-2.3-5.4-.8-10.3-.8-6.8 0-12.3 1.4-5.5 1.2-9.3 3.5-3.8 2.4-5.9 5.7-2 3.2-2 7.2 0 4.4 2.3 8 2.3 3.4 6.6 6.6 4.3 3 10.4 6.1 6.1 3 13.9 6.2 10.5 4.4 18.9 9.4 8.4 5 14.4 11.2 6 6.2 9.2 14.3 3.2 8 3.2 18.7 0 14.7-5.6 24.8-5.5 9.9-15.1 16.1-9.6 6.2-22.3 8.9-12.7 2.7-26.8 2.7-14.4 0-27.6-2.5-13-2.4-22.5-7.3z"/><path fill="url(#f)" d="M193.7 188.8h-43.3l-12.5-39.1H75.4L63 188.8H20L84 12.9h47zm-64.8-69.5l-19-59.2q-2-6.6-2.9-15.8h-1q-.6 7.8-3 15.4l-19.3 59.6z"/><path fill-opacity=".4" d="M356.4 12.9v175.9h8V20.9h64c19.6 0 34.7 3.6 45.2 10.8l1.4 1a37.3 37.3 0 0 0-9.4-9c-10.5-7.2-25.6-10.8-45.2-10.8zm79.3 36.7a18.4 18.4 0 0 1 4.1 11.9c0 7-2.4 12.4-7.2 16.4a29 29 0 0 1-19.2 6H396l8 8h17.4a29 29 0 0 0 19.2-6c4.8-4 7.2-9.5 7.2-16.4 0-3.7-.8-6.9-2.4-9.5-.7-1.2-1.6-2.3-2-2.6zm11.5 44.8l8 8a50 50 0 0 1 25.3 9.7 42.3 42.3 0 0 0-16.8-13.3c-4.4-2-11-3.8-16.5-4.4zm-2.9 31c1.6 3 2.5 6.5 2.5 10.4 0 7.4-2.7 13.2-7.9 17.4a32.8 32.8 0 0 1-21.5 6.4H396l8 8h21.4c9.2 0 16.4-2.1 21.5-6.4 5.2-4.2 7.9-10 7.9-17.4a19.8 19.8 0 0 0-10.5-18.4zM275.7 10c-9.2 0-18 1-26.4 3-8.3 2-15.7 5.1-22 9.4a47 47 0 0 0-15 16.3 47.3 47.3 0 0 0-5.6 23.4 46 46 0 0 0 17.8 37.6 46 46 0 0 1-9.8-29.6 47 47 0 0 1 5.6-23.5 47 47 0 0 1 15-16.3 67.1 67.1 0 0 1 22-9.3c8.3-2 17.2-3.1 26.5-3.1a152.6 152.6 0 0 1 35.9 4.2v-5.4c-6-2.3-12.5-4-19.6-5-7-1.1-15.2-1.7-24.3-1.7zm-17.3 64.1l.5.8c1.5 2.3 3.7 4.5 6.6 6.6 2.8 2 6.3 4.1 10.4 6.1 4.1 2 8.7 4 13.9 6.2 7 3 13.3 6 18.9 9.4 3.4 2 6.5 4.1 9.3 6.4l-2.9-3.2c-4-4.2-8.8-8-14.4-11.2-5.6-3.3-11.9-6.5-19-9.4-5-2.1-9.7-4.2-13.8-6.2a81 81 0 0 1-9.5-5.5zm25.2 60.7a15.3 15.3 0 0 1 .4 15.2c-1.2 2.2-3.1 4-5.7 5.7a30.8 30.8 0 0 1-9.3 3.7 75.4 75.4 0 0 1-61.4-16.6v39.3a69 69 0 0 0 8 3.4v-34.7a76.4 76.4 0 0 0 48.4 18c5 0 9.3-.5 13-1.4a34 34 0 0 0 9.3-3.7 14.4 14.4 0 0 0 7.5-12.8c0-3.4-1-6.5-3-9.2a30.5 30.5 0 0 0-7.2-6.9zm-145.7 14.9l8 7.9 10.2 31.1-5.7.1zm-46.2-22.6h45l-21.8-75-7.9-7.9c.3 4.5 1.3 9 2.3 13.5l19.6 61.5h-45zm37.2-8l7.8 8M84.1 12.9h47l2.6 7.7H91.9L30.7 188.9l-10.7-.1z"/><path fill="#f4f3f3" d="M673.3 167.8h-13.5V119q0-13.9-4.3-20.2-4.3-6.3-14.7-6.3-8.6 0-14.8 8-6 7.8-6 19v48.3h-13.6v-50.4q0-25-19.3-25-8.8 0-14.8 7.6-5.7 7.4-5.7 19.4v48.4H553V83h13.7v13.4h.3q9-15.3 26.3-15.3 8.7 0 15.2 4.8 6.4 4.8 8.8 12.6 9.5-17.4 28.2-17.4 28 0 28 34.4zm61.2 2q-18.8 0-30-11.9-11.3-11.9-11.3-31.5 0-21.4 11.8-33.4 11.6-12 31.5-12 19 0 29.5 11.7 10.8 11.7 10.8 32.4 0 20.3-11.5 32.6-11.4 12.1-30.8 12.1zm1-77.3q-13 0-20.6 8.8-7.6 8.9-7.6 24.6 0 15.2 7.6 23.8 7.7 8.6 20.6 8.6 13.2 0 20.3-8.5 7-8.5 7-24.3t-7-24.4q-7.1-8.6-20.3-8.6zm76.8 63h-.3v12.3h-13.6V42.2h13.7v55.7h.4q10.1-16.8 29.3-16.8 16.3 0 25.5 11.4 9.2 11.3 9.2 30.3 0 21.4-10.2 34.2-10.4 12.7-28.4 12.7-16.8 0-25.3-14.2zm-.3-34.2v12q0 10.4 6.8 17.6 6.8 7.4 17.3 7.4 12.5 0 19.4-9.4 7-9.5 7-26.2 0-14.2-6.5-22.3-6.6-8-17.7-8-11.9 0-19 8.3-7.3 8.2-7.3 20.6zm93-59.9q-3.7 0-6.3-2.5-2.5-2.5-2.5-6.3t2.5-6.2q2.6-2.6 6.3-2.6 3.8 0 6.4 2.6 2.5 2.5 2.5 6.3 0 3.7-2.5 6.2-2.6 2.5-6.4 2.5zm6.6 106.4h-13.5V83h13.5zm41 0h-13.5V42.2h13.6zm95.8-39h-60q.5 14.2 7.7 21.9 7.3 7.6 20 7.6 14.4 0 26.3-9.4v12.7q-11.1 8.2-29.5 8.2-18 0-28.2-11.5-10.3-11.7-10.3-32.5 0-20 11.2-32.3Q997 81 1013.5 81q16.7 0 25.9 10.7 9 10.8 9 29.9zm-14-11.5q0-11.8-5.7-18.4-5.5-6.4-15.4-6.4-9.6 0-16.5 6.8-6.5 6.8-8.2 18z"/></svg>