<svg xmlns="http://www.w3.org/2000/svg" viewBox="0 0 612 612"><g xmlns:cc="http://creativecommons.org/ns#" xmlns:dc="http://purl.org/dc/elements/1.1/" xmlns:inkscape="http://www.inkscape.org/namespaces/inkscape" xmlns:rdf="http://www.w3.org/1999/02/22-rdf-syntax-ns#" xmlns:sodipodi="http://sodipodi.sourceforge.net/DTD/sodipodi-0.dtd" xmlns:svg="http://www.w3.org/2000/svg" inkscape:version="0.48.1 r9760" sodipodi:docname="twitter_bootstrap_logo.svg"><path fill="#563D7C" d="M612 510c0 56-46 102-102 102H102C46 612 0 566 0 510V102C0 46 46 0 102 0h408c56 0 102 46 102 102v408z"/><path fill="#FFF" d="M166 133h174c32 0 58 7 77 22s29 37 29 67c0 18-5 33-13 46-9 12-22 22-38 29v2c22 4 39 15 50 31s17 36 17 60c0 15-3 28-8 40s-12 22-23 31-24 16-41 21-37 8-60 8H166V133zm63 150h102c15 0 27-5 37-13s15-21 15-37c0-18-4-31-13-38s-22-11-39-11H229v98zm0 156h110c19 0 34-5 45-15 10-10 15-24 15-42 0-17-5-31-15-40s-26-15-45-15H229v112z"/></g></svg>
