<svg xmlns="http://www.w3.org/2000/svg" viewBox="0 0 103.8 132" fill="white" fill-opacity="0.05"><path d="M55 5c-.6 0-.6.5-.6.5l.1 1 .8 2.3a102.2 102.2 0 0 1 4.2 15c.2 1 .2 1.1-.4 1-14-4-23.3-3.7-28.7 1-4 3.4-5.7 5.2-7 7.7l-.6 1.1-1-.5c-1-.6-8.2-3.8-9.3-4.2-1-.4-1.1 0-.5.8.9 1.2 3.5 8.5 3.1 8.8l-5 2.7a28.1 28.1 0 0 0-5.1 3c0 .3 1.6 1 7.6 3.7l2.9 1.4-1 2.1A25.4 25.4 0 0 0 12.1 69c1.6 6 7 10.8 14.8 13.4 2.2.7 2.2.7 3 2.2 1.4 2.9 4.5 5.3 6.8 5.3.8 0 1 .1 1.4.9 1.3 2.5 2.3 6.8 2.6 11l.2 2.5-1.2.5c-2.7 1-6 5-8 9.7l-1.1 2.5-2.9 1.6c-3 1.6-7.8 4.8-10.6 7l-1.7 1.4h13.8c7.6 0 13.8-.1 13.8-.2l-.8-2.5-.8-2.6c0-.2 1.2.3 2.8 1a36 36 0 0 0 17.4 4.2c4.9-.2 5.1-.3 6.2-2.6.5-1 1-1.8 1.3-1.8.5 0 1.3 1.2 1.8 2.9l.4 1.6H77c3.7 0 5.5-.1 5.2-.3a48.5 48.5 0 0 0-6-11c-1.8-2.4-2-2.6-1.6-3.2.7-1.4 2.2-2.8 5.2-4.9 4.2-2.8 5-3.7 4.3-5-.2-.4.1-.4 4.3-.7 7.6-.5 10.5-1.7 10.5-4.3 0-.7-.4-1.3-2.5-3.4-2.9-3-4.4-5-5.3-6.7-.9-1.7-.8-2.3.1-3.2 1-.9 1.4-2.4 1.2-3.7-.5-2.2-1.8-3.7-3.8-4l-.8-.4 1-1.3c2.3-2.6 3.3-7.8 2.1-11a9.2 9.2 0 0 0-4-4.3c-.8-.4-.9-.5-.7-1 .4-.8-.3-2.3-1.4-3.3-2.5-2.3-3.6-3.8-3.6-5.3 0-.5 0-.6 1.4-.6 5 0 8.2-5.3 8.1-13-.1-7.7-3.1-14-10-20.8A38.4 38.4 0 0 0 71 7.9c-.5 0-.7.1-.6.3l1.3 3c1.2 2.8 2.5 6.6 3.2 9.3.6 2.1.7 5.3.3 5.3-.2 0-1-1-1.7-2A113.2 113.2 0 0 0 62 10c-1-.8-4-4-5.3-4.6L55.4 5h-.3zm1.6.9c.4.1.9.5 1.5 1 .6.4 1.5 1.5 2.2 2.2l1.5 1.4.8 1 2.8 3a1764 1764 0 0 1 10 12.9c.4-.2.7-1.9.6-4a35 35 0 0 0-3-10.5l-1.6-4c-.2-.6.4-.1 4.6 3.4 4.4 3.6 9 9.3 9.4 9.8l2.5 4.8c1.6 3.8 2.3 8.2 1.9 12.2-.5 4.5-1.8 7.3-4.3 8.8-2.3 1.4-2 1.5-22.8-2.8-20.1-4.2-21-4.4-24.8-3.6-1 .2-1.8.5-1.8.6 0 .2.3.6.8 1l1 .8c.3.3 4.4 5.4 5.3 6.9l.8 1.4-1.2-.5A39.5 39.5 0 0 0 32.6 49c-.1.1.2.7.7 1.3A39.5 39.5 0 0 1 42.5 65c.4 1 1.1 3.6 1.5 6.1.3 1.9.3 8.3 0 9.2 0 .6-.2.5-.8-.8-1.1-2-3.4-5-4.5-5.6-.7-.4-1.3-.5-2.9-.5-2.4 0-4.2.8-5.1 2.2-1 1.4-1.8 3.9-1.8 5.4 0 .7 0 1.2-.2 1.2a33 33 0 0 1-5.9-2.2c-5.6-2.8-9-6.7-10.1-11.7a27.7 27.7 0 0 1 3.8-18.2c0-.1-1.1-.7-7.5-3.6l-3-1.4 4.8-2.5a45 45 0 0 0 5-2.9c.2-.6-.4-3-1.5-5.9l-1-2.8 4.8 2.1c1.4.6 4.2 2.2 4.8 2.1.6 0 .8-.5 1.2-1.3.8-1.8 3.5-4.8 3.8-5.1.3-.3 4.7-4.2 6-4.4 4.8-2.3 12.5-2.3 21.5 0l4.3 1.1c.5.2.6.1.6-1.1 0-2-4.1-14.8-4.2-15.2l-.8-2.5c-.1-.5 0-.8.3-1 .3-.2.8 0 1.1.2zm-15 36c2.6 0 4 .2 20.6 3.7a357 357 0 0 1 18 4c1 3 1.3 3.4 3.3 5.4 1.6 1.7 2 2.3 2 2.9 0 1-.2 1.1-1 .8-.5-.2-.8-.2-1 0 0 .1.1.3.4.4 3.4 1.1 5.8 3 6.4 5.1l.3 1.2-1.6-.1a31 31 0 0 0-13.8 1.5l-1.5.6-.3-1.2a13 13 0 0 0-5-7c-.2 0 .3.7 1.2 1.7a13 13 0 0 1 3.2 5.3l.3 1-.8-.1c-4-.8-6.4-1-10.3-1a24 24 0 0 0-10.6 2.5l-1.9 1 .1-2.2c0-1.2 0-2.2-.2-2.3-.1 0-.2 1.4-.2 3.2 0 3 0 3.3.8 5 .5 1 1 1.8 1.2 1.8.3 0 .3-.1-.4-1.6l-.7-1.3 2-.8a34.6 34.6 0 0 1 19.3-1.2c1.2.3 1.3.4 1.3 1 0 .3-.5 1.3-.9 2.2l-.7 1.7c.3.2.6-.3 1.4-1.8.7-1.4.7-1.4 1.6-1.2 1.5.2 2.4.8 4 2.4l1.6 1.4 3.2.4c4 .5 6 .8 6.9 1.2 1.7.9 2.5 4.4 1.3 5.9-.8 1-1.3 1.2-4.7 1.8-5 .8-6.6 1.2-6 1.4.2.1 1 0 1.8-.1l4.4-.8 3-.5.1.7c.5 2.1 2.2 4.6 5.8 8.3 2.8 2.8 3 3.4 2.5 4.5-1.1 2-8.3 3-18.8 2.5-6-.3-8.7-.1-9.6.5-.4.2-.7.5-.6.7.1.1.5 0 .9-.2.6-.5 1.4-.5 6.4-.4 5.9 0 6.9.2 7.3 1.3.2.7-.7 1.6-3.9 3.8a44.6 44.6 0 0 0-3.9 3c-1.2 1.2-3 4-6.3 10.2-2.3 4.1-3.1 5.5-3.7 5.8-.5.3-1.8.4-4.6.4-4.3 0-4.4 0-8-.8-3-.8-7-2.3-10.1-4l-2.1-1-.5-2.2-.5-2.2.6-3.6a38 38 0 0 0-2-22.5l1-.4 1-.7c0-.4 0-.4-1 0-1 .7-3.4.6-4.8 0a10 10 0 0 1-5.2-7c-.2-1.4.2-3.1 1-5 .7-1.3 1-1.6 2.1-2.2 1.7-.8 4.4-1 5.8-.2 1 .6 3 3.3 4.5 6 .5 1 1 1.7 1.2 1.7.8-.3 1-8.4.3-12.2a40 40 0 0 0-8.6-17.6 14 14 0 0 1-2-2.7 46 46 0 0 1 11 3.5c.3-.2-.9-2.5-2.4-4.8a33 33 0 0 0-3.4-4.2l-2-1.9.8-.2 3.6-.2zm43.2 23.8l5 .2c1 .2 1 .2 1 1.6v1.3l-.8-.2-2.5-.3c-1.6-.1-1.7-.2-1.3-.6.3-.3.4-.8.4-1.1 0-.5-.2-.8-1-.8s-1 .3-1 .8c0 .3 0 .8.2 1 .2.3.2.4-.3.4A51.3 51.3 0 0 0 74 69.7c-.4.1-.4 0-.4-.8 0-.9 0-1 1.5-1.5 3.6-1.4 5.3-1.6 9.6-1.7zm-22 .9l3 .1c1.6.1 4 .4 5 .7l2.2.4v1c.2 1.2.1 1.2-2.8.6l-4.5-.5-2.8-.2c.3-.4.5-.5.4-1.2 0-.7-.5-1-.5-1zm-1.8 0c.4 0 .5.2.3 1 0 .5.2 1 .4 1.2l-1.5.2a32 32 0 0 0-9.9 2.5c-.3.1-.4 0-.5-.5-.1-.6 0-.8.8-1.3 2-1.4 7.5-3 10-3h.4zm23.4 2l2.3.1c3.8.4 4 .5 3.7 1.3a11 11 0 0 1-2.4 4.8c-.8 1-1.4 1.3-1.7 1.3l-3.5-.4-2.9-.3-1.3-1.3a9 9 0 0 0-4.3-2.6c-1.1-.2-1.2-.8-.2-1.2 2.7-1 6.8-1.7 10.3-1.7zM35 77.8h-1c-.6.3-1.5 1.7-1.5 2.7 0 1 .4.8.6-.4.2-1.2 1-1.8 2.1-1.8.8 0 .8 0 .4.4-.3.3-.6 1-.9 1.5-.3.8-.3 1 0 2.3.5 1.5 1 2.2 2.1 2.8 1 .4 2.6.5 2.6.1 0-.1-.3-.2-.7-.2-1.4 0-2.5-.8-3-2-.7-1.5-.7-2.5 0-3.6 1-1.4 1.8-1.4 3 0 .4.6 1 1 1 1 .4 0 .1-.5-.7-1.5-.9-1-1.1-1-2.7-1.2l-1.3-.1z"/></svg>
