<svg xmlns="http://www.w3.org/2000/svg" xmlns:xlink="http://www.w3.org/1999/xlink" width="111" height="151"><defs><linearGradient id="b" x1="-3.5%" x2="100.8%" y1="17%" y2="92.9%"><stop offset="0%" stop-color="#FFF" stop-opacity=".1"/><stop offset="100%" stop-color="#FFF" stop-opacity="0"/></linearGradient><path id="a" d="M95.8 33.6a3.4 3.4 0 0 0-5.8-1.9L72.3 49.6 58.3 23a3.3 3.3 0 0 0-6 0l-7.7 14.4L25.4 2C23.9-1 19.4-.2 19 3L.5 121.2 50 148.9c3.1 1.7 7 1.7 10 0l50-27.7-14.2-87.6z"/></defs><g fill="none" fill-rule="evenodd" transform="translate(.2)"><mask id="c" fill="#fff"><use xlink:href="#a"/></mask><use fill="url(#b)" fill-rule="nonzero" xlink:href="#a"/><g mask="url(#c)"><path fill="#FFA000" fill-rule="nonzero" d="M.5 121.2L19.1 3c.5-3.2 4.8-4 6.4-1l19.1 35.5 7.7-14.4a3.4 3.4 0 0 1 6 0l51.7 98H.5z"/><path fill="#F57C00" fill-rule="nonzero" d="M64.5 75.2l-20-37.6-44 83.6z"/><path fill="#FFCA28" fill-rule="nonzero" d="M110 121.2L95.8 33.6a3.4 3.4 0 0 0-5.8-1.9L.5 121.2 50 148.9c3.1 1.7 7 1.7 10 0l50-27.7z"/><path fill="#FFF" fill-opacity=".2" fill-rule="nonzero" d="M95.8 33.6a3.4 3.4 0 0 0-5.8-1.9L72.3 49.6 58.3 23a3.3 3.3 0 0 0-6 0l-7.7 14.4L25.4 2C23.9-1 19.4-.2 19 3L.5 121.2l.5.3 71.2-71L90 32.6a3.5 3.5 0 0 1 5.8 1.9l14 86.7.2-.1-14.2-87.6zM.7 121L19 3.9c.5-3.3 4.8-4 6.4-1.1l19.1 35.6 7.7-14.5a3.4 3.4 0 0 1 6 0L72 50 .7 121z"/><path fill="#A52714" fill-rule="nonzero" d="M60 148a10.4 10.4 0 0 1-10 0L.6 120.4l-.1.8L50 148.9c3.1 1.7 7 1.7 10 0l50-27.7v-.8L60 148z" opacity=".2"/></g><path d="M-26.9-6.7h164.3V157H-26.9z" mask="url(#c)"/><path fill="url(#b)" fill-rule="nonzero" d="M95.8 33.6a3.4 3.4 0 0 0-5.8-1.9L72.3 49.6 58.3 23a3.3 3.3 0 0 0-6 0l-7.7 14.4L25.4 2C23.9-1 19.4-.2 19 3L.5 121.2 50 148.9c3.1 1.7 7 1.7 10 0l50-27.7-14.2-87.6z" mask="url(#c)"/></g></svg>