<svg xmlns="http://www.w3.org/2000/svg" viewBox="0 0 25 24.5"><path fill="#aaa" fill-rule="evenodd" d="M12.5 1A11.5 11.5 0 0 0 9 23.5c.6 0 .8-.3.8-.6v-2c-3.3.7-4-1.5-4-1.5-.5-1.3-1.2-1.7-1.2-1.7-1-.7 0-.7 0-.7 1.2.1 1.8 1.2 1.8 1.2 1 1.8 2.7 1.3 3.4 1 0-.8.4-1.3.7-1.6-2.5-.3-5.2-1.3-5.2-5.7a4 4 0 0 1 1.2-3c-.2-.4-.6-1.5 0-3.1 0 0 1-.3 3.2 1.2a11 11 0 0 1 5.8 0c2.2-1.5 3.2-1.2 3.2-1.2.6 1.6.2 2.7 0 3 .8.8 1.3 1.9 1.3 3.1 0 4.5-2.7 5.4-5.3 5.7.4.4.8 1 .8 2.1V23c0 .3.2.7.8.6A11.5 11.5 0 0 0 12.5 1"/></svg>
