<svg xmlns="http://www.w3.org/2000/svg" version="1" viewBox="0 0 490 490"><g fill="#1E9C87"><path d="M112 97c72-65 181-66 254-7l-58 3c-8 0-13 6-13 14 0 7 6 13 13 13h1l89-4c7 0 13-6 13-13v-1-1l-3-88a14 14 0 0 0-27 1l2 55c-36-29-81-47-129-49A222 222 0 0 0 27 294a13 13 0 0 0 17 10c7-2 11-9 9-16-16-70 6-143 59-191zM462 196a14 14 0 0 0-26 6 195 195 0 0 1-314 196l59-5a13 13 0 1 0-3-27l-88 8c-8 1-13 7-13 15l8 88c1 7 7 13 14 13h1c7-1 13-8 12-15l-5-54a221 221 0 0 0 289-8c60-55 86-138 66-217z"/></g></svg>
